# xmcd
#
# Track frame offsets: 
#        150
#        12102
#        22469
#        32280
#        44422
#        53193
#        64116
#        75660
#        86452
#        99226
#        115145
#        127367
#        138845
#        152981
#        166436
#        179529
#        191643
#        202540
#        219693
#        235424
#        253420
#        265631
#        277373
#        295208
#        330226
#
# Disc length: 4774 seconds
#
# Revision: 0
# Processed by: cddbd v1.5.2PL0 Copyright (c) Steve Scherf et al.
# Submitted via: ExactAudioCopy v0.95b3
#
DISCID=6f12a419
DTITLE=Cliff Richard  - They Said It Wouldn't Last - Rare B-sides 1963
DTITLE=1989 - Disc 2
DYEAR=1900
DGENRE=
TTITLE0=Say You're Mine
TTITLE1=True True Lovin'
TTITLE2=Just Another Guy
TTITLE3=Just A Little Bit Too Late
TTITLE4=Somebody Loses
TTITLE5=I Get The Feelin'
TTITLE6=Our Story Book
TTITLE7=Sweet Little Jesus Boy
TTITLE8=Occasional Rain
TTITLE9=She's Leaving You
TTITLE10=So Long
TTITLE11=Monday Comes Too Soon
TTITLE12=I Was Only Fooling Myself
TTITLE13=Time Flies
TTITLE14=Annabella Umbrella
TTITLE15=Pigeon
TTITLE16=A Thousand Conversations
TTITLE17=My Cloud
TTITLE18=Empty Chairs
TTITLE19=The Old Accordion
TTITLE20=Come Back Billie Jo
TTITLE21=I Only Know I Love You - Bonus track
TTITLE22=Back In Vaudeville - Bonus track
TTITLE23=Stronger - Bonus track
TTITLE24=I Just Don't Have The Heart - Bonus track
EXTD=
EXTT0=
EXTT1=
EXTT2=
EXTT3=
EXTT4=
EXTT5=
EXTT6=
EXTT7=
EXTT8=
EXTT9=
EXTT10=
EXTT11=
EXTT12=
EXTT13=
EXTT14=
EXTT15=
EXTT16=
EXTT17=
EXTT18=
EXTT19=
EXTT20=
EXTT21=
EXTT22=
EXTT23=
EXTT24=
PLAYORDER=
